<?xml version="1.0" standalone="no"?>
<!DOCTYPE svg PUBLIC "-//W3C//DTD SVG 20010904//EN"
 "http://www.w3.org/TR/2001/REC-SVG-20010904/DTD/svg10.dtd">
<svg version="1.0" xmlns="http://www.w3.org/2000/svg"
 width="1920.000000pt" height="1561.000000pt" viewBox="0 0 1920.000000 1561.000000"
 preserveAspectRatio="xMidYMid meet">

<g transform="translate(0.000000,1561.000000) scale(0.100000,-0.100000)"
fill="#000000" stroke="none">
<path d="M8932 10655 c-194 -7 -394 -16 -445 -19 -50 -3 -177 -11 -282 -17
-555 -30 -1360 -118 -1965 -215 -1545 -246 -2829 -650 -3750 -1179 -602 -346
-1026 -748 -1219 -1155 -147 -313 -176 -600 -90 -907 163 -579 739 -1121 1684
-1583 1283 -629 3070 -1041 5170 -1195 576 -42 1531 -63 2135 -46 245 7 461
14 480 16 19 2 94 6 165 10 778 34 1952 180 2783 345 1377 274 2593 722 3371
1242 614 412 971 861 1057 1332 23 129 21 325 -5 453 -227 1113 -1997 2093
-4686 2597 -715 133 -1673 246 -2485 291 -327 18 -1227 46 -1425 44 -77 -1
-299 -7 -493 -14z m1313 -275 c817 -28 1524 -84 2175 -171 1978 -264 3598
-796 4505 -1478 191 -143 406 -357 520 -516 82 -113 177 -303 209 -417 71
-249 54 -496 -53 -750 -74 -177 -192 -341 -380 -528 -146 -145 -272 -247 -471
-382 -787 -535 -2090 -984 -3600 -1242 -945 -161 -1772 -245 -2825 -286 -327
-13 -1379 -4 -1765 14 -1705 83 -3196 330 -4445 736 -840 274 -1562 637 -1985
999 -420 359 -626 705 -647 1087 -34 624 512 1244 1537 1746 946 463 2232 816
3655 1002 561 74 738 92 1285 136 688 54 1593 74 2285 50z"/>
<path d="M8740 10129 c-1816 -78 -3381 -331 -4631 -749 -1231 -411 -2015 -935
-2258 -1509 -59 -139 -75 -221 -75 -376 0 -116 4 -154 24 -225 63 -227 162
-391 359 -594 520 -533 1442 -966 2796 -1311 971 -248 2185 -418 3500 -490
426 -23 1213 -36 1540 -25 648 23 866 32 1070 46 930 62 1632 153 2470 320
818 163 1338 307 1915 529 1336 515 2032 1177 1949 1856 -53 444 -422 864
-1099 1250 -896 512 -2350 923 -3995 1128 -522 66 -1360 131 -1910 150 -315
10 -1407 10 -1655 0z m-625 -578 c94 -12 375 -52 625 -91 1261 -193 1499 -220
1970 -220 430 0 756 31 1127 107 128 26 134 26 168 10 98 -47 75 -200 -48
-320 -153 -149 -443 -279 -726 -325 -148 -24 -546 -23 -721 1 -239 33 -452 80
-875 192 -559 148 -703 185 -718 185 -11 0 -17 -8 -17 -24 0 -34 -20 -54 -151
-153 -275 -207 -500 -423 -646 -618 -90 -120 -149 -213 -139 -222 6 -7 472 13
539 23 l37 6 0 63 c0 138 36 236 119 327 122 134 294 160 409 63 56 -47 77
-98 77 -190 0 -70 -4 -89 -34 -152 -42 -91 -119 -167 -219 -217 -87 -44 -86
-51 13 -121 55 -40 65 -51 65 -76 0 -46 -45 -82 -93 -76 -49 7 -130 56 -211
129 -60 54 -68 58 -113 58 -59 0 -697 -58 -730 -66 -31 -8 -46 -29 -205 -284
-486 -778 -629 -978 -888 -1244 -322 -332 -580 -484 -923 -546 -345 -62 -673
19 -889 220 -136 126 -209 257 -248 448 -26 129 -26 255 1 385 43 214 125 365
283 522 114 113 213 177 359 233 193 74 338 36 337 -90 -1 -43 -22 -68 -93
-108 -271 -152 -427 -367 -427 -590 0 -137 42 -232 144 -328 98 -92 216 -129
384 -119 222 13 443 111 662 293 94 78 368 356 482 489 144 168 478 608 478
629 0 11 -99 6 -172 -9 -81 -18 -139 -42 -266 -113 -119 -67 -146 -75 -186
-58 -43 18 -63 64 -46 105 20 50 79 99 179 150 155 79 290 118 551 161 69 11
137 25 151 31 17 7 83 85 182 217 319 426 588 677 930 866 69 39 79 51 50 60
-28 8 -591 103 -743 125 -397 58 -692 49 -995 -29 -251 -65 -421 -156 -562
-302 -209 -217 -224 -506 -31 -602 94 -47 234 -33 373 36 150 76 285 191 392
335 57 78 87 95 129 73 30 -17 48 -70 39 -118 -9 -50 -104 -239 -171 -340 -70
-105 -194 -235 -298 -314 -89 -67 -228 -138 -321 -163 -81 -22 -274 -31 -348
-15 -93 19 -204 80 -275 152 -114 115 -165 247 -165 433 -2 417 330 795 878
1000 180 67 355 105 645 139 19 2 195 3 390 1 286 -2 388 -7 525 -24z m6445
-1131 c0 -11 -33 -70 -73 -132 -454 -697 -1254 -1967 -1295 -2057 -35 -77 -35
-133 1 -168 25 -25 34 -28 95 -28 52 1 78 7 119 28 106 55 262 186 500 420
l242 238 28 -15 c16 -8 50 -37 77 -66 l48 -51 -18 -27 c-73 -113 -410 -460
-574 -591 -196 -158 -318 -226 -485 -272 -110 -30 -248 -24 -320 13 -88 46
-146 121 -171 220 -9 35 -19 69 -23 76 -5 9 -33 -9 -97 -62 -157 -132 -300
-205 -454 -232 -176 -30 -331 19 -455 144 -106 107 -147 232 -145 442 2 171 2
170 -10 170 -5 0 -48 -22 -95 -49 -46 -26 -128 -63 -182 -82 -84 -28 -111 -33
-193 -33 -120 0 -187 24 -265 95 -65 60 -110 146 -126 239 -6 36 -15 71 -19
79 -9 16 -7 18 -388 -576 -128 -199 -245 -371 -259 -383 -24 -19 -40 -20 -238
-20 -173 0 -215 3 -224 14 -16 19 -22 7 172 316 219 348 542 889 584 977 46
96 48 156 8 191 -23 20 -35 23 -67 18 -101 -16 -209 -89 -385 -259 -131 -127
-254 -275 -488 -585 -176 -234 -253 -324 -363 -424 -362 -328 -834 -369 -1107
-95 -70 70 -84 93 -168 275 -6 12 -14 21 -18 20 -4 -2 -69 -57 -144 -123 -75
-66 -150 -127 -167 -135 -31 -15 -31 -15 -74 35 -50 56 -85 120 -77 140 2 8
46 51 96 96 172 153 230 232 321 436 110 246 182 367 300 505 190 222 451 375
745 434 150 30 200 10 240 -93 37 -97 39 -95 -113 -167 -162 -77 -248 -132
-353 -224 -197 -174 -313 -403 -313 -619 0 -213 112 -338 300 -336 138 1 258
60 390 194 130 130 217 293 257 479 26 121 24 329 -5 478 -15 77 -18 120 -12
136 16 43 173 136 228 136 42 0 78 -33 114 -104 41 -82 66 -171 79 -286 6 -52
13 -98 16 -103 3 -4 95 84 204 197 215 221 281 276 392 331 95 46 175 66 268
66 99 1 150 -15 205 -64 69 -60 104 -150 104 -265 0 -81 11 -81 78 0 192 232
452 335 657 261 72 -26 156 -111 184 -186 67 -182 -46 -417 -223 -467 -25 -7
-75 -11 -110 -8 -52 3 -74 10 -108 34 -61 42 -99 116 -99 194 0 33 -6 63 -12
67 -16 10 -83 -73 -123 -153 -27 -55 -37 -87 -41 -145 -20 -264 178 -365 448
-228 81 40 313 224 582 461 344 302 561 411 817 411 129 -1 211 -24 302 -87
76 -51 130 -120 153 -192 10 -33 23 -54 31 -54 15 0 88 109 573 855 111 171
211 318 222 328 19 15 47 17 260 17 232 0 239 -1 239 -20z"/>
<path d="M8851 8433 c-43 -21 -87 -82 -106 -146 -42 -142 12 -175 127 -77 55
47 88 110 88 167 0 70 -40 90 -109 56z"/>
<path d="M12720 7244 c-68 -19 -119 -48 -212 -123 -267 -215 -448 -538 -448
-801 1 -240 190 -287 450 -110 138 94 261 233 377 425 76 127 81 141 54 166
-12 11 -21 24 -21 30 0 6 14 50 31 97 42 117 44 193 7 249 -46 69 -137 95
-238 67z"/>
</g>
</svg>
